<?xml version="1.0" encoding="UTF-8"?>
<svg id="_レイヤー_3" data-name="レイヤー_3" xmlns="http://www.w3.org/2000/svg" width="278.0405339" height="54.0599976" version="1.1" viewBox="0 0 278.0405339 54.0599976">
  <!-- Generator: Adobe Illustrator 29.0.1, SVG Export Plug-In . SVG Version: 2.1.0 Build 192)  -->
  <defs>
    <style>
      .st0 {
        fill: #f99292;
      }

      .st1 {
        fill: #ffc679;
      }
    </style>
  </defs>
  <g>
    <circle class="st0" cx="138.6542805" cy="31.6363945" r="4.8832176"/>
    <circle class="st0" cx="203.4092976" cy="31.6363945" r="4.8832176"/>
    <circle class="st0" cx="40.5540278" cy="5.7191094" r="4.8832176"/>
    <circle class="st0" cx="91.6937548" cy="48.5207513" r="4.9"/>
    <circle class="st0" cx="273.1405339" cy="5.4547506" r="4.9"/>
  </g>
  <g>
    <path class="st1" d="M158.1550909,32.0499878v10.460022c-2.5,3.5900269-5.8600464,6.539978-9.7700195,8.539978-3.710022,1.9300537-7.9100342,3.0100098-12.3800049,3.0100098-14.9299927,0-27.0300293-12.0999756-27.0300293-27.0299683S121.0750738,0,136.0050665,0c4.4699707,0,8.6699829,1.0800171,12.3800049,3.0100098,1.6699829.8499756,3.2299805,1.8800049,4.6699829,3.0599976.0200195.0100098.0400391.0200195.0499878.0300293.2800293.2299805.5500488.4599609.8200073.7099609.7600098.8200073,1.2300415,1.9299927,1.2300415,3.1400146,0,2.5599976-2.0700073,4.6400146-4.6400146,4.6400146-.7700195,0-1.4899902-.1900024-2.1300049-.5200195v.2600098c-3.2000122-3.1300049-7.5599976-5.039978-12.3800049-5.039978-9.7999878,0-17.7399902,7.9400024-17.7399902,17.7399902s7.9400024,17.7399902,17.7399902,17.7399902c4.8200073,0,9.1799927-1.9100342,12.3800049-5.039978v-7.6800537c0-2.6999512,2.1900024-4.8799438,4.8800049-4.8799438.1599731,0,.3200073.0099487.4799805.0199585,2.4700317.2399902,4.4100342,2.3200073,4.4100342,4.8599854Z"/>
    <path class="st1" d="M222.910108,32.0499878v10.460022c-2.5,3.5900269-5.8600464,6.539978-9.7700195,8.539978-3.710022,1.9300537-7.9100342,3.0100098-12.3800049,3.0100098-14.9299927,0-27.0300293-12.0999756-27.0300293-27.0299683S185.8300909,0,200.7600836,0c4.4699707,0,8.6699829,1.0800171,12.3800049,3.0100098,1.6699829.8499756,3.2299805,1.8800049,4.6699829,3.0599976.0200195.0100098.0400391.0200195.0499878.0300293.2800293.2299805.5500488.4599609.8200073.7099609.7600098.8200073,1.2300415,1.9299927,1.2300415,3.1400146,0,2.5599976-2.0700073,4.6400146-4.6400146,4.6400146-.7700195,0-1.4899902-.1900024-2.1300049-.5200195v.2600098c-3.2000122-3.1300049-7.5599976-5.039978-12.3800049-5.039978-9.7999878,0-17.7399902,7.9400024-17.7399902,17.7399902s7.9400024,17.7399902,17.7399902,17.7399902c4.8200073,0,9.1799927-1.9100342,12.3800049-5.039978v-7.6800537c0-2.6999512,2.1900024-4.8799438,4.8800049-4.8799438.1599731,0,.3200073.0099487.4799805.0199585,2.4700317.2399902,4.4100342,2.3200073,4.4100342,4.8599854Z"/>
    <path class="st1" d="M27.6500244,5.7149963v42.6300049c0,2.6999512-2.1900024,4.8800049-4.8900146,4.8800049s-4.8800049-2.1800537-4.8800049-4.8800049V10.60495H4.8900146c-2.7000122,0-4.8900146-2.1900024-4.8900146-4.8899536C0,3.0249939,2.1900024.8349915,4.8900146.8349915h17.8699951c2.7000122,0,4.8900146,2.1900024,4.8900146,4.8800049Z"/>
    <path class="st1" d="M90.4763391,34.2092536l-.3299561-.7200317-.960022-2.0799561-12.25-26.6400146-.3800049-.8099976-.0100098-.039978c-.8299561-1.9300537-2.75-3.2800293-4.9899902-3.2800293-2.1099854,0-3.9500122,1.210022-4.8399658,2.9799805l-.1600342.3300171-.3699951.8099976-12.2600098,26.6500244-4.3099976,9.3599854-2.4500122,5.3399658-.3399658.7300415c-.2000122.5299683-.2999878,1.0899658-.2999878,1.6799927,0,2.710022,2.1900024,4.9000244,4.8999634,4.9000244,1.8599854,0,3.4800415-1.0400391,4.3099976-2.5600586l.210022-.4499512,4.4299927-9.6400146h26c2.4799805-.25,4.4000244-2.3300171,4.4000244-4.8699951,0-.6000366-.1100464-1.1699829-.3000488-1.6900024ZM64.6863611,31.4092658l6.8699951-14.9500122,6.8800049,14.9500122h-13.75Z"/>
    <path class="st1" d="M269.7828218,18.4852274c0,.7800293-.1800537,1.5100098-.5100098,2.1600342l-.5599976.8800049-.0500488.0699463-5.6900024,8.9900513-.5299683.8299561v17.210022c0,2.7000122-2.1799927,4.8800049-4.8800049,4.8800049s-4.8800049-2.1799927-4.8800049-4.8800049v-16.0200195l-1.2799683-2.0199585-14.1400146-22.2800293-.3300171-.5100098-.0200195-.0499878c-.3699951-.6799927-.5699463-1.460022-.5699463-2.289978,0-2.710022,2.1999512-4.9000244,4.8999634-4.9000244,1.6500244,0,3.1000366.8099976,3.9799805,2.0499878l.3300171.5100098.0200195.0499878,7.1099854,11.2000122,4.5,7.0999756,3.6400146-5.7199707c.4199829-.6199951.9699707-1.1300049,1.6199951-1.5.7199707-.4199829,1.5499878-.6599731,2.4400024-.6599731,2.710022,0,4.9000244,2.1900024,4.9000244,4.8999634Z"/>
  </g>
</svg>